<svg width="270" height="45" viewBox="0 0 270 45" fill="none" xmlns="http://www.w3.org/2000/svg">
<path d="M33.3674 13.0056C33.1925 14.3945 32.726 15.6863 32.0263 16.8276C32.0263 16.8276 32.0263 16.8325 32.0214 16.8325C31.9048 17.0219 31.7785 17.2113 31.6522 17.391C31.6473 17.3958 31.6473 17.3958 31.6424 17.4007C29.6308 19.9843 25.4714 19.5812 23.9456 16.5119C22.1283 12.855 18.6492 10.1694 14.4947 9.44579C13.761 9.31467 13.0078 9.25153 12.2352 9.25153C11.8708 9.25153 11.5112 9.2661 11.1517 9.29524C7.51222 9.59148 4.2955 11.3835 2.11377 14.0497C2.1818 13.9429 2.24982 13.8409 2.31785 13.7389C2.35186 13.6855 2.38588 13.6369 2.42475 13.5835C2.45391 13.5398 2.48306 13.5009 2.51221 13.4572C2.53165 13.4281 2.55595 13.399 2.57538 13.3698C2.6094 13.3164 2.64827 13.2678 2.68714 13.2193C2.87665 12.9667 3.07101 12.7239 3.27995 12.4859C3.31882 12.4422 3.35284 12.3985 3.39171 12.3597C3.49861 12.2383 3.61037 12.1168 3.72213 12.0003C3.76586 11.9566 3.80959 11.9129 3.85332 11.8643C3.89705 11.8206 3.94079 11.7769 3.98452 11.7332C4.07198 11.6458 4.1643 11.5584 4.25663 11.4758C4.30036 11.4321 4.34895 11.3932 4.39268 11.3495C4.43641 11.3058 4.485 11.267 4.53359 11.2233C4.57733 11.1844 4.62592 11.1407 4.67451 11.1018C4.7231 11.063 4.77169 11.0193 4.82028 10.9804C4.86887 10.9416 4.91746 10.8979 4.96605 10.8639C5.01464 10.825 5.06324 10.7862 5.11183 10.7473C5.16042 10.7085 5.20901 10.6696 5.26246 10.6308C5.31105 10.5919 5.3645 10.5531 5.41309 10.5191C5.51513 10.4462 5.61717 10.3734 5.71921 10.3005C5.77266 10.2665 5.82125 10.2277 5.8747 10.1937C5.92815 10.1597 5.97674 10.1208 6.03019 10.0917C6.13709 10.0237 6.24399 9.95572 6.35089 9.89259C6.40434 9.85859 6.45779 9.82945 6.51124 9.79546C6.56469 9.76146 6.61814 9.73232 6.67159 9.70318C6.72504 9.66919 6.77849 9.64005 6.8368 9.61091C6.89025 9.58177 6.94856 9.54778 7.00201 9.52349C7.11377 9.46522 7.22553 9.40694 7.33729 9.34866C7.45391 9.29038 7.57052 9.23696 7.68714 9.17869C7.74059 9.1544 7.7989 9.13012 7.85235 9.10584C7.91066 9.08156 7.96897 9.05242 8.02728 9.02814C8.08559 9.00385 8.1439 8.97957 8.2022 8.95529C8.3091 8.91158 8.41601 8.86787 8.5229 8.82902C8.82903 8.71246 9.14487 8.60562 9.46557 8.51335C9.52874 8.49392 9.58704 8.47935 9.65021 8.45993C9.83486 8.40651 10.0244 8.35794 10.2139 8.31424C10.277 8.29967 10.3402 8.2851 10.4034 8.27053C10.7824 8.18797 11.1711 8.11998 11.5647 8.07141C11.7591 8.04713 11.9583 8.0277 12.1575 8.00828C12.5171 7.97914 12.8815 7.96457 13.2459 7.96457C13.8242 7.96457 14.3927 7.99856 14.9466 8.07141C19.383 8.63476 23.1196 11.3835 25.0341 15.1861C25.0535 15.2298 25.0778 15.2687 25.1021 15.3124C25.107 15.327 25.1167 15.3415 25.1215 15.3513C25.175 15.4435 25.2284 15.5358 25.2819 15.6184C27.2498 18.6682 32.0214 17.9495 33.0564 14.3654C33.1925 13.9235 33.2945 13.4669 33.3674 13.0056Z" fill="url(#paint0_linear_48_175)"/>
<path d="M33.5035 11.2524C33.5035 11.8498 33.4598 12.4325 33.3675 13.0056C33.2946 13.4718 33.1925 13.9283 33.0662 14.3703C32.0361 17.9543 27.2596 18.6731 25.2917 15.6232C25.2382 15.5358 25.1848 15.4484 25.1313 15.3561C25.1216 15.3416 25.1167 15.327 25.1119 15.3173C25.0876 15.2736 25.0681 15.2347 25.0438 15.191C23.1342 11.3884 19.3927 8.63965 14.9564 8.0763C14.4024 8.00345 13.8339 7.96946 13.2557 7.96946C12.8864 7.96946 12.5268 7.98403 12.1673 8.01317C11.968 8.02774 11.7737 8.04716 11.5745 8.0763C11.1809 8.12486 10.797 8.19286 10.4131 8.27542C10.35 8.28998 10.2868 8.30455 10.2236 8.31912C10.0341 8.36283 9.84948 8.4114 9.65998 8.46482C9.59681 8.48424 9.5385 8.49881 9.47534 8.51824C9.15464 8.61051 8.83879 8.71735 8.53267 8.83391C8.42577 8.87276 8.31887 8.91647 8.21197 8.96018C8.15366 8.98446 8.09536 9.00874 8.03705 9.03302C7.97874 9.05731 7.92043 9.08159 7.86212 9.11073C7.80867 9.13501 7.75036 9.15929 7.69691 9.18357C7.58029 9.23699 7.46367 9.29527 7.34706 9.35355C7.2353 9.40697 7.12354 9.46525 7.01178 9.52838C6.95833 9.55752 6.90002 9.58666 6.84657 9.6158C6.79312 9.64494 6.73481 9.67893 6.68136 9.70807C6.62791 9.73721 6.57446 9.77121 6.52101 9.80035C6.46756 9.82948 6.41411 9.86348 6.36066 9.89747C6.25376 9.96061 6.14686 10.0286 6.03996 10.0966C5.98651 10.1306 5.93306 10.1646 5.88447 10.1986C5.83102 10.2326 5.78243 10.2666 5.72898 10.3054C5.62694 10.3783 5.5249 10.4463 5.42286 10.524C5.37427 10.558 5.32082 10.5968 5.27223 10.6357C5.22363 10.6745 5.17504 10.7085 5.12159 10.7522C5.073 10.7911 5.02441 10.8299 4.97582 10.8688C4.92723 10.9076 4.87864 10.9465 4.83005 10.9853C4.78146 11.0242 4.73287 11.0679 4.68428 11.1067C4.63569 11.1456 4.59195 11.1893 4.54336 11.2281C4.49477 11.267 4.45104 11.3107 4.40245 11.3544C4.35386 11.3981 4.31013 11.437 4.26639 11.4807C4.17407 11.5632 4.08661 11.6507 3.99429 11.7381C3.95055 11.7818 3.90682 11.8255 3.86309 11.8692C3.81936 11.9129 3.77563 11.9566 3.73189 12.0052C3.62014 12.112 3.50838 12.2334 3.40148 12.3548C3.3626 12.3986 3.32373 12.4423 3.28972 12.4811C3.08078 12.7191 2.88641 12.9619 2.69691 13.2144C2.65804 13.263 2.61916 13.3164 2.58515 13.365C2.56086 13.3941 2.54142 13.4233 2.52198 13.4524C2.48797 13.4961 2.45881 13.5398 2.42966 13.5787C2.39565 13.6321 2.35677 13.6807 2.32276 13.7341C2.24987 13.8361 2.18671 13.9381 2.11868 14.0449C2.09438 14.0789 2.07495 14.1129 2.05065 14.1469C2.04579 14.1469 2.04579 14.1469 2.04579 14.142C2.04579 14.142 2.04579 14.142 2.04093 14.142C1.69108 14.5791 1.37038 15.0356 1.07397 15.5164C1.93403 12.8891 3.26056 10.4705 4.96124 8.36769C8.93112 3.46266 14.9175 0.252536 21.6619 0.0145694C21.6765 0.0145694 21.6862 0.0145694 21.7008 0.0145694C21.9146 0.00485646 22.1284 0 22.3422 0C28.5132 0.0534211 33.5035 5.07015 33.5035 11.2524Z" fill="url(#paint1_linear_48_175)"/>
<path d="M13.0127 11.6361C14.4024 11.8109 15.6949 12.2772 16.8368 12.9765C16.8368 12.9765 16.8417 12.9765 16.8417 12.9813C17.0312 13.0979 17.2207 13.2242 17.4005 13.3504C17.4053 13.3553 17.4053 13.3553 17.4102 13.3602C19.9952 15.3707 19.5919 19.5279 16.521 21.0528C12.8621 22.8691 10.175 26.3463 9.45102 30.4986C9.31982 31.2319 9.25665 31.9847 9.25665 32.7569C9.25665 33.1211 9.27123 33.4805 9.30038 33.8399C9.59679 37.4774 11.3898 40.6923 14.0574 42.8729C13.9505 42.8049 13.8485 42.7369 13.7464 42.6689C13.693 42.6349 13.6444 42.6009 13.591 42.5621C13.5472 42.5329 13.5084 42.5038 13.4646 42.4747C13.4355 42.4552 13.4063 42.431 13.3772 42.4115C13.3237 42.3775 13.2751 42.3387 13.2265 42.2998C12.9739 42.1104 12.7309 41.9162 12.4928 41.7073C12.4491 41.6685 12.4053 41.6345 12.3665 41.5956C12.245 41.4888 12.1235 41.3771 12.0069 41.2654C11.9632 41.2217 11.9194 41.178 11.8708 41.1343C11.8271 41.0906 11.7834 41.0469 11.7396 41.0031C11.6522 40.9157 11.5647 40.8235 11.4821 40.7312C11.4384 40.6875 11.3995 40.6389 11.3558 40.5952C11.312 40.5515 11.2732 40.5029 11.2294 40.4544C11.1906 40.4107 11.1468 40.3621 11.108 40.3135C11.0691 40.265 11.0254 40.2164 10.9865 40.1678C10.9476 40.1193 10.9039 40.0707 10.8699 40.0221C10.831 39.9736 10.7921 39.925 10.7533 39.8764C10.7144 39.8279 10.6755 39.7793 10.6366 39.7259C10.5978 39.6773 10.5589 39.6239 10.5249 39.5753C10.452 39.4734 10.3791 39.3714 10.3062 39.2694C10.2722 39.216 10.2333 39.1674 10.1993 39.114C10.1653 39.0606 10.1264 39.012 10.0973 38.9586C10.0292 38.8517 9.96122 38.7449 9.89805 38.638C9.86404 38.5846 9.83488 38.5312 9.80087 38.4778C9.76686 38.4244 9.7377 38.3709 9.70855 38.3175C9.67453 38.2641 9.64538 38.2107 9.61623 38.1524C9.58707 38.099 9.55306 38.0407 9.52876 37.9873C9.47045 37.8756 9.41214 37.7639 9.35383 37.6522C9.29552 37.5356 9.24207 37.4191 9.18377 37.3025C9.15947 37.2491 9.13517 37.1908 9.11088 37.1374C9.08658 37.0791 9.05743 37.0208 9.03313 36.9626C9.00884 36.9043 8.98454 36.846 8.96025 36.7877C8.91652 36.6809 8.87278 36.5741 8.83391 36.4672C8.71729 36.1613 8.61039 35.8456 8.51807 35.5251C8.49864 35.4619 8.48406 35.4036 8.46462 35.3405C8.41117 35.156 8.36258 34.9666 8.31885 34.7772C8.30427 34.714 8.28969 34.6509 8.27512 34.5878C8.19251 34.209 8.12449 33.8204 8.07589 33.4271C8.0516 33.2328 8.03216 33.0337 8.01273 32.8346C7.98357 32.4752 7.96899 32.111 7.96899 31.7467C7.96899 31.1688 8.00301 30.6006 8.07589 30.047C8.63955 25.613 11.3898 21.8784 15.1945 19.9649C15.2382 19.9455 15.2771 19.9212 15.3208 19.897C15.3354 19.8921 15.3499 19.8824 15.3597 19.8775C15.452 19.8241 15.5443 19.7707 15.6269 19.7173C18.6784 17.7504 17.9593 12.9813 14.3733 11.9469C13.9311 11.8109 13.4743 11.709 13.0127 11.6361Z" fill="url(#paint2_linear_48_175)"/>
<path d="M11.2585 11.5001C11.8562 11.5001 12.4393 11.5438 13.0126 11.6361C13.4791 11.7089 13.9359 11.8109 14.378 11.9372C17.964 12.9668 18.6832 17.7407 15.6317 19.7075C15.5442 19.761 15.4568 19.8144 15.3644 19.8678C15.3499 19.8775 15.3353 19.8824 15.3256 19.8872C15.2818 19.9115 15.243 19.9309 15.1992 19.9552C11.3946 21.8638 8.64431 25.6033 8.08066 30.0372C8.00777 30.5909 7.97376 31.1591 7.97376 31.737C7.97376 32.1061 7.98834 32.4655 8.01749 32.8249C8.03207 33.024 8.05151 33.2182 8.08066 33.4173C8.12925 33.8107 8.19728 34.1944 8.27988 34.578C8.29446 34.6412 8.30904 34.7043 8.32362 34.7674C8.36735 34.9568 8.41594 35.1414 8.46939 35.3308C8.48882 35.3939 8.5034 35.4522 8.52284 35.5153C8.61516 35.8359 8.72206 36.1515 8.83868 36.4575C8.87755 36.5643 8.92128 36.6712 8.96502 36.778C8.98931 36.8363 9.01361 36.8946 9.0379 36.9528C9.0622 37.0111 9.08649 37.0694 9.11565 37.1277C9.13994 37.1811 9.16424 37.2394 9.18853 37.2928C9.24198 37.4094 9.30029 37.5259 9.3586 37.6425C9.41205 37.7542 9.47036 37.8659 9.53353 37.9776C9.56268 38.031 9.59184 38.0893 9.62099 38.1427C9.65015 38.1961 9.68416 38.2544 9.71331 38.3078C9.74247 38.3612 9.77648 38.4146 9.80564 38.4681C9.83479 38.5215 9.8688 38.5749 9.90282 38.6283C9.96599 38.7352 10.034 38.842 10.102 38.9489C10.1361 39.0023 10.1701 39.0557 10.2041 39.1043C10.2381 39.1577 10.2721 39.2062 10.311 39.2597C10.3839 39.3617 10.4519 39.4636 10.5296 39.5656C10.5637 39.6142 10.6025 39.6676 10.6414 39.7162C10.6803 39.7647 10.7143 39.8133 10.758 39.8667C10.7969 39.9153 10.8358 39.9639 10.8746 40.0124C10.9135 40.061 10.9524 40.1096 10.9913 40.1581C11.0301 40.2067 11.0739 40.2552 11.1127 40.3038C11.1516 40.3524 11.1953 40.3961 11.2342 40.4446C11.2731 40.4932 11.3168 40.5369 11.3605 40.5855C11.4043 40.6341 11.4431 40.6778 11.4869 40.7215C11.5695 40.8137 11.6569 40.9012 11.7444 40.9934C11.7881 41.0371 11.8319 41.0808 11.8756 41.1246C11.9193 41.1683 11.9631 41.212 12.0117 41.2557C12.1283 41.3722 12.2498 41.4791 12.3712 41.5859C12.415 41.6248 12.4587 41.6636 12.4976 41.6976C12.7357 41.9064 12.9786 42.1007 13.2313 42.2901C13.2799 42.329 13.3333 42.3678 13.3819 42.4018C13.4111 42.4261 13.4402 42.4455 13.4694 42.4649C13.5131 42.4941 13.552 42.5232 13.5957 42.5524C13.6492 42.5864 13.6978 42.6252 13.7512 42.6592C13.8533 42.732 13.9553 42.7952 14.0622 42.8632C14.0962 42.8875 14.1302 42.9069 14.1642 42.9312C14.1642 42.936 14.1642 42.936 14.1594 42.936C14.1594 42.936 14.1594 42.936 14.1594 42.9409C14.5967 43.2905 15.0534 43.6111 15.5345 43.9073C12.9057 43.0477 10.4859 41.7219 8.38192 40.0221C3.46453 36.0593 0.252672 30.0761 0.0145773 23.3353C0.0145773 23.3208 0.0145773 23.311 0.0145773 23.2965C0.00485909 23.0828 0 22.874 0 22.6603C0.05345 16.4877 5.07289 11.5001 11.2585 11.5001Z" fill="url(#paint3_linear_48_175)"/>
<path d="M11.6912 32.009C11.8661 30.62 12.3326 29.3282 13.0323 28.1869C13.0323 28.1869 13.0323 28.1821 13.0371 28.1821C13.1537 27.9927 13.2801 27.8033 13.4064 27.6236C13.4113 27.6187 13.4113 27.6187 13.4161 27.6139C15.4278 25.0302 19.5872 25.4333 21.1129 28.5026C22.9302 32.1595 26.4093 34.8451 30.5639 35.5688C31.2976 35.6999 32.0507 35.763 32.8233 35.763C33.1878 35.763 33.5473 35.7484 33.9069 35.7193C37.5464 35.4231 40.7631 33.631 42.9448 30.9648C42.8768 31.0717 42.8088 31.1737 42.7407 31.2756C42.7067 31.3291 42.6727 31.3776 42.6338 31.431C42.6047 31.4748 42.5755 31.5136 42.5464 31.5573C42.5269 31.5865 42.5026 31.6156 42.4832 31.6447C42.4492 31.6982 42.4103 31.7467 42.3714 31.7953C42.1819 32.0478 41.9876 32.2906 41.7786 32.5286C41.7398 32.5723 41.7057 32.616 41.6669 32.6549C41.56 32.7763 41.4482 32.8977 41.3365 33.0143C41.2927 33.058 41.249 33.1017 41.2053 33.1502C41.1615 33.1939 41.1178 33.2376 41.0741 33.2814C40.9866 33.3688 40.8943 33.4562 40.802 33.5387C40.7582 33.5825 40.7096 33.6213 40.6659 33.665C40.6222 33.7087 40.5736 33.7476 40.525 33.7913C40.4813 33.8301 40.4327 33.8738 40.3841 33.9127C40.3355 33.9516 40.2869 33.9953 40.2383 34.0341C40.1897 34.073 40.1411 34.1167 40.0925 34.1507C40.0439 34.1895 39.9953 34.2284 39.9468 34.2672C39.8982 34.3061 39.8496 34.3449 39.7961 34.3838C39.7475 34.4226 39.6941 34.4615 39.6455 34.4955C39.5434 34.5683 39.4414 34.6412 39.3394 34.714C39.2859 34.748 39.2373 34.7869 39.1839 34.8209C39.1304 34.8549 39.0818 34.8937 39.0284 34.9228C38.9215 34.9908 38.8146 35.0588 38.7077 35.122C38.6542 35.156 38.6008 35.1851 38.5473 35.2191C38.4939 35.2531 38.4404 35.2822 38.387 35.3114C38.3335 35.3454 38.2801 35.3745 38.2218 35.4036C38.1683 35.4328 38.11 35.4668 38.0566 35.4911C37.9448 35.5493 37.833 35.6076 37.7213 35.6659C37.6047 35.7242 37.4881 35.7776 37.3714 35.8359C37.318 35.8601 37.2597 35.8844 37.2062 35.9087C37.1479 35.933 37.0896 35.9621 37.0313 35.9864C36.973 36.0107 36.9147 36.035 36.8564 36.0593C36.7495 36.103 36.6426 36.1467 36.5357 36.1855C36.2296 36.3021 35.9137 36.4089 35.593 36.5012C35.5298 36.5206 35.4715 36.5352 35.4084 36.5546C35.2237 36.608 35.0342 36.6566 34.8447 36.7003C34.7815 36.7149 34.7184 36.7295 34.6552 36.744C34.2762 36.8266 33.8875 36.8946 33.4939 36.9431C33.2995 36.9674 33.1003 36.9868 32.9011 37.0063C32.5415 37.0354 32.1771 37.05 31.8126 37.05C31.2344 37.05 30.6659 37.016 30.112 36.9431C25.6756 36.3798 21.939 33.631 20.0245 29.8284C20.0051 29.7847 19.9808 29.7459 19.9565 29.7021C19.9516 29.6876 19.9419 29.673 19.937 29.6633C19.8836 29.571 19.8301 29.4787 19.7767 29.3962C17.8088 26.3463 13.0371 27.0651 12.0021 30.6492C11.8661 31.0862 11.764 31.5427 11.6912 32.009Z" fill="url(#paint4_linear_48_175)"/>
<path d="M11.5552 33.7573C11.5552 33.16 11.5989 32.5772 11.6912 32.0041C11.7641 31.5379 11.8662 31.0814 11.9925 30.6395C13.0226 27.0554 17.7991 26.3366 19.767 29.3865C19.8205 29.4739 19.8739 29.5613 19.9274 29.6536C19.9371 29.6682 19.942 29.6827 19.9468 29.6924C19.9711 29.7362 19.9905 29.775 20.0148 29.8187C21.9245 33.6213 25.666 36.3701 30.1023 36.9334C30.6562 37.0063 31.2248 37.0403 31.803 37.0403C32.1723 37.0403 32.5319 37.0257 32.8914 36.9966C33.0906 36.982 33.285 36.9626 33.4842 36.9334C33.8778 36.8849 34.2617 36.8169 34.6456 36.7343C34.7087 36.7197 34.7719 36.7052 34.8351 36.6906C35.0246 36.6469 35.2092 36.5983 35.3987 36.5449C35.4619 36.5255 35.5202 36.5109 35.5834 36.4915C35.9041 36.3992 36.2199 36.2924 36.526 36.1758C36.6329 36.137 36.7398 36.0933 36.8467 36.0496C36.905 36.0253 36.9633 36.001 37.0216 35.9767C37.08 35.9524 37.1383 35.9281 37.1966 35.899C37.25 35.8747 37.3083 35.8504 37.3618 35.8262C37.4784 35.7727 37.595 35.7145 37.7116 35.6562C37.8234 35.6028 37.9352 35.5445 38.0469 35.4813C38.1004 35.4522 38.1587 35.4231 38.2121 35.3939C38.2656 35.3648 38.3239 35.3308 38.3773 35.3017C38.4308 35.2725 38.4842 35.2385 38.5377 35.2094C38.5911 35.1803 38.6446 35.1463 38.698 35.1123C38.8049 35.0491 38.9118 34.9811 39.0187 34.9131C39.0722 34.8791 39.1256 34.8452 39.1742 34.8112C39.2277 34.7772 39.2763 34.7432 39.3297 34.7043C39.4318 34.6315 39.5338 34.5635 39.6358 34.4858C39.6844 34.4518 39.7379 34.4129 39.7865 34.3741C39.8351 34.3352 39.8836 34.3012 39.9371 34.2575C39.9857 34.2187 40.0343 34.1798 40.0829 34.141C40.1315 34.1021 40.1801 34.0633 40.2286 34.0244C40.2772 33.9856 40.3258 33.9419 40.3744 33.903C40.423 33.8641 40.4667 33.8204 40.5153 33.7816C40.5639 33.7427 40.6077 33.699 40.6562 33.6553C40.7048 33.6116 40.7486 33.5728 40.7923 33.5291C40.8846 33.4465 40.9721 33.3591 41.0644 33.2717C41.1081 33.228 41.1519 33.1842 41.1956 33.1405C41.2393 33.0968 41.2831 33.0531 41.3268 33.0046C41.4434 32.888 41.5503 32.7666 41.6572 32.6452C41.6961 32.6015 41.735 32.5578 41.769 32.5189C41.9779 32.2809 42.1723 32.0381 42.3618 31.7856C42.4007 31.737 42.4395 31.6836 42.4735 31.635C42.4978 31.6059 42.5173 31.5768 42.5367 31.5476C42.5659 31.5039 42.595 31.4651 42.6242 31.4213C42.6582 31.3679 42.6971 31.3194 42.7311 31.2659C42.804 31.164 42.8671 31.062 42.9352 30.9551C42.9594 30.9211 42.9789 30.8871 43.0032 30.8531C43.008 30.8531 43.008 30.8531 43.008 30.858C43.008 30.858 43.008 30.858 43.0129 30.858C43.3628 30.4209 43.6835 29.9644 43.9799 29.4836C43.1198 32.111 41.7933 34.5295 40.0926 36.6323C36.1227 41.5374 30.1363 44.7475 23.3919 44.9855C23.3773 44.9855 23.3676 44.9855 23.353 44.9855C23.1392 44.9952 22.9303 44.9952 22.7165 45C16.5455 44.9612 11.5552 39.9396 11.5552 33.7573Z" fill="url(#paint5_linear_48_175)"/>
<path d="M31.9921 33.3736C30.6024 33.1988 29.3099 32.7326 28.168 32.0332C28.168 32.0332 28.1632 32.0332 28.1632 32.0284C27.9736 31.9118 27.7841 31.7856 27.6044 31.6593C27.5995 31.6544 27.5995 31.6544 27.5946 31.6496C25.0096 29.639 25.4129 25.4819 28.4839 23.9569C32.1427 22.1406 34.8298 18.6634 35.5538 14.5111C35.685 13.7778 35.7482 13.025 35.7482 12.2529C35.7482 11.8886 35.7336 11.5292 35.7045 11.1699C35.4081 7.53237 33.615 4.31739 30.9474 2.13684C31.0543 2.20483 31.1564 2.27282 31.2584 2.34081C31.3118 2.37481 31.3604 2.4088 31.4139 2.44765C31.4576 2.47679 31.4965 2.50593 31.5402 2.53507C31.5694 2.5545 31.5985 2.57878 31.6277 2.5982C31.6811 2.6322 31.7297 2.67105 31.7783 2.7099C32.031 2.89931 32.2739 3.09356 32.512 3.30239C32.5558 3.34124 32.5995 3.37524 32.6384 3.41409C32.7598 3.52093 32.8813 3.63263 32.9979 3.74433C33.0465 3.79775 33.0903 3.84146 33.134 3.88517C33.1777 3.92888 33.2215 3.97258 33.2652 4.01629C33.3527 4.10371 33.4401 4.19598 33.5227 4.28825C33.5665 4.33196 33.6053 4.38053 33.6491 4.42424C33.6928 4.46794 33.7317 4.51651 33.7754 4.56507C33.8143 4.60878 33.858 4.65735 33.8969 4.70591C33.9358 4.75447 33.9795 4.80304 34.0184 4.8516C34.0572 4.90017 34.101 4.94873 34.135 4.9973C34.1738 5.04586 34.2127 5.09443 34.2516 5.14299C34.2905 5.19156 34.3293 5.24012 34.3682 5.29354C34.4071 5.34211 34.446 5.39553 34.48 5.44409C34.5529 5.54608 34.6257 5.64806 34.6986 5.75005C34.7326 5.80347 34.7715 5.85204 34.8055 5.90546C34.8395 5.95888 34.8784 6.00744 34.9076 6.06086C34.9756 6.16771 35.0436 6.27455 35.1068 6.38139C35.1408 6.43481 35.17 6.48823 35.204 6.54165C35.238 6.59507 35.2671 6.6485 35.2963 6.70192C35.3303 6.75534 35.3595 6.80876 35.3886 6.86704C35.4178 6.92046 35.4518 6.97874 35.4761 7.03216C35.5344 7.14386 35.5927 7.25555 35.651 7.36725C35.7093 7.48381 35.7628 7.60036 35.8211 7.71692C35.8454 7.77034 35.8697 7.82862 35.894 7.88204C35.9183 7.94032 35.9474 7.99859 35.9717 8.05687C35.996 8.11515 36.0203 8.17343 36.0446 8.2317C36.0883 8.33855 36.1321 8.44539 36.1709 8.55223C36.2875 8.85819 36.3944 9.17386 36.4868 9.49438C36.5062 9.55752 36.5208 9.6158 36.5402 9.67893C36.5937 9.86348 36.6423 10.0529 36.686 10.2423C36.7006 10.3054 36.7151 10.3685 36.7297 10.4317C36.8123 10.8105 36.8804 11.199 36.9289 11.5924C36.9532 11.7866 36.9727 11.9858 36.9921 12.1849C37.0213 12.5442 37.0358 12.9085 37.0358 13.2727C37.0358 13.8506 37.0018 14.4188 36.9289 14.9725C36.3653 19.4064 33.615 23.141 29.8104 25.0545C29.7667 25.0739 29.7278 25.0982 29.684 25.1225C29.6695 25.1273 29.6549 25.1371 29.6452 25.1419C29.5529 25.1953 29.4605 25.2488 29.3779 25.3022C26.3264 27.269 27.0456 32.0381 30.6316 33.0725C31.0689 33.1988 31.5256 33.3008 31.9921 33.3736Z" fill="url(#paint6_linear_48_175)"/>
<path d="M33.7466 33.5096C33.1489 33.5096 32.5658 33.4659 31.9924 33.3736C31.526 33.3008 31.0692 33.1988 30.627 33.0725C27.041 32.043 26.3219 27.2691 29.3734 25.3022C29.4609 25.2488 29.5483 25.1953 29.6406 25.1419C29.6552 25.1322 29.6698 25.1274 29.6795 25.1225C29.7232 25.0982 29.7621 25.0788 29.8059 25.0545C33.6105 23.1459 36.3608 19.4064 36.9244 14.9725C36.9973 14.4188 37.0313 13.8506 37.0313 13.2727C37.0313 12.9036 37.0167 12.5443 36.9876 12.1849C36.973 11.9858 36.9536 11.7915 36.9244 11.5924C36.8758 11.199 36.8078 10.8154 36.7252 10.4317C36.7106 10.3686 36.696 10.3054 36.6815 10.2423C36.6377 10.0529 36.5891 9.86834 36.5357 9.67894C36.5162 9.6158 36.5017 9.55753 36.4822 9.49439C36.3899 9.17387 36.283 8.8582 36.1664 8.55224C36.1275 8.4454 36.0838 8.33855 36.0401 8.23171C36.0158 8.17343 35.9915 8.11516 35.9672 8.05688C35.9429 7.9986 35.9186 7.94032 35.8894 7.88205C35.8651 7.82862 35.8408 7.77035 35.8165 7.71693C35.7631 7.60037 35.7048 7.48382 35.6465 7.36726C35.593 7.25556 35.5347 7.14386 35.4715 7.03216C35.4424 6.97874 35.4132 6.92047 35.3841 6.86704C35.3549 6.81362 35.3209 6.75535 35.2918 6.70193C35.2626 6.6485 35.2286 6.59508 35.1994 6.54166C35.1703 6.48824 35.1363 6.43482 35.1023 6.3814C35.0391 6.27456 34.9711 6.16771 34.903 6.06087C34.869 6.00745 34.835 5.95403 34.801 5.90546C34.767 5.85204 34.733 5.80348 34.6941 5.75006C34.6212 5.64807 34.5532 5.54609 34.4754 5.4441C34.4414 5.39554 34.4025 5.34211 34.3637 5.29355C34.3248 5.24499 34.2908 5.19642 34.2471 5.143C34.2082 5.09444 34.1693 5.04587 34.1304 4.99731C34.0916 4.94874 34.0527 4.90018 34.0138 4.85161C33.9749 4.80305 33.9312 4.75448 33.8923 4.70592C33.8535 4.65735 33.8097 4.61365 33.7709 4.56508C33.732 4.51652 33.6883 4.47281 33.6445 4.42424C33.6008 4.37568 33.5619 4.33197 33.5182 4.28826C33.4356 4.19599 33.3481 4.10857 33.2607 4.0163C33.2218 3.97259 33.1781 3.92888 33.1343 3.88518C33.0906 3.84147 33.0469 3.79776 32.9983 3.75405C32.8817 3.6375 32.7602 3.53065 32.6387 3.42381C32.5998 3.38496 32.5561 3.34611 32.5124 3.30726C32.2743 3.09843 32.0313 2.90417 31.7786 2.71477C31.7301 2.67592 31.6766 2.63706 31.628 2.60307C31.5989 2.57879 31.5697 2.55936 31.5405 2.53993C31.4968 2.5108 31.4579 2.48166 31.4142 2.45252C31.3608 2.41852 31.3122 2.37967 31.2587 2.34568C31.1567 2.27283 31.0546 2.2097 30.9477 2.1417C30.9137 2.11742 30.8797 2.098 30.8457 2.07371C30.8457 2.06886 30.8457 2.06886 30.8506 2.06886C30.8506 2.06886 30.8506 2.06886 30.8506 2.064C30.4132 1.71434 29.9565 1.39381 29.4754 1.09756C32.1042 1.95716 34.524 3.28297 36.628 4.98274C41.5357 8.95047 44.7475 14.9336 44.9856 21.6744C44.9856 21.689 44.9856 21.6987 44.9856 21.7133C44.9954 21.9269 44.9954 22.1358 45.0002 22.3495C44.9516 28.522 39.9322 33.5096 33.7466 33.5096Z" fill="url(#paint7_linear_48_175)"/>
<path d="M71.5064 25.3023C71.5064 29.0321 69.846 30.9309 66.5644 30.8921C63.2829 30.8532 61.6225 28.9932 61.6225 25.3023V9.64505H59.0189C57.5844 9.64505 56.3809 10.9854 56.3809 12.3647V25.8948C56.3809 32.3053 60.0014 35.3649 66.5595 35.3649C73.0096 35.3649 76.7038 32.1208 76.7038 25.8948V9.64505H71.5015V25.3023H71.5064Z" fill="#1F1F29"/>
<path d="M85.3986 9.83432H80.8005V34.9957H85.3986V9.83432Z" fill="#1F1F29"/>
<path d="M95.4302 30.2218C95.1158 30.0469 94.8702 29.8624 94.6933 29.6633C94.4919 29.4156 94.3544 29.1436 94.2807 28.8425V20.5283H98.6184V16.0943H94.2807V11.0242H89.6826V29.4787C89.6826 30.7706 89.9528 31.7856 90.4932 32.5189C91.0336 33.2522 91.628 33.8058 92.2862 34.1798C93.0673 34.6266 93.9466 34.8985 94.9242 35.0005H99.5223V30.4889H96.6583C96.1524 30.484 95.7446 30.3966 95.4302 30.2218Z" fill="#1F1F29"/>
<path d="M105.992 16.9151C105.339 17.289 104.734 17.8427 104.184 18.576C103.629 19.3093 103.354 20.3243 103.354 21.6161V35.0005H107.991V22.2475C108.065 21.9512 108.203 21.6744 108.404 21.4267C108.581 21.2276 108.827 21.0431 109.141 20.8682C109.455 20.6934 109.863 20.606 110.364 20.606H113.906V16.0943H108.625C107.648 16.1963 106.768 16.4683 105.992 16.9151Z" fill="#1F1F29"/>
<path d="M227.099 19.6541C226.687 18.945 226.205 18.3574 225.665 17.8815C225.125 17.4104 224.579 17.0219 224.024 16.7256C222.717 16.0312 221.234 15.6572 219.573 15.6086C217.889 15.6572 216.395 16.0312 215.088 16.7256C214.533 17.0219 213.988 17.4104 213.448 17.8815C212.907 18.3525 212.431 18.945 212.013 19.6541C211.601 20.3631 211.266 21.2033 211.016 22.1697C210.765 23.141 210.638 24.2677 210.638 25.5595C210.638 26.8514 210.765 27.9829 211.016 28.9494C211.266 29.9206 211.601 30.7511 212.013 31.4456C212.426 32.14 212.907 32.718 213.448 33.1793C213.988 33.6407 214.533 34.0195 215.088 34.3157C216.395 34.9859 217.893 35.3356 219.573 35.3599C221.234 35.3356 222.717 34.9859 224.024 34.3157C224.579 34.0195 225.125 33.6407 225.665 33.1793C226.205 32.718 226.682 32.14 227.099 31.4456C227.512 30.7511 227.856 29.9158 228.116 28.9494C228.382 27.9781 228.514 26.8514 228.514 25.5595C228.514 24.2677 228.382 23.1362 228.116 22.1697C227.856 21.2033 227.517 20.3631 227.099 19.6541ZM223.725 27.3516C223.621 27.9975 223.425 28.5997 223.12 29.1582C222.821 29.7167 222.383 30.1829 221.819 30.5568C221.254 30.9308 220.507 31.1153 219.573 31.1153C218.645 31.1153 217.893 30.9308 217.328 30.5568C216.764 30.1829 216.331 29.7167 216.027 29.1582C215.727 28.5997 215.526 27.9975 215.422 27.3516C215.319 26.7057 215.27 26.1083 215.27 25.5644C215.27 25.0205 215.319 24.4231 215.422 23.7772C215.521 23.1313 215.722 22.5291 216.027 21.9706C216.326 21.4121 216.764 20.9459 217.328 20.572C217.893 20.198 218.64 20.0135 219.573 20.0135C220.502 20.0135 221.254 20.198 221.819 20.572C222.383 20.9459 222.816 21.4121 223.12 21.9706C223.42 22.5291 223.621 23.1313 223.725 23.7772C223.823 24.4231 223.877 25.0205 223.877 25.5644C223.877 26.1083 223.828 26.7057 223.725 27.3516Z" fill="#1F1F29"/>
<path d="M246.724 18.5565C246.12 17.8086 245.467 17.2404 244.764 16.8422C244.062 16.4439 243.394 16.1526 242.765 15.968C242.136 15.7835 241.591 15.6766 241.124 15.6523C240.658 15.6281 240.387 15.6135 240.314 15.6135C240.211 15.6135 239.935 15.6281 239.483 15.6523C239.032 15.6766 238.491 15.7835 237.862 15.968C237.234 16.1526 236.565 16.4488 235.863 16.8422C235.16 17.2404 234.507 17.8135 233.903 18.5565C233.299 19.2996 232.802 20.2417 232.414 21.3733C232.026 22.5048 231.83 23.9035 231.83 25.5644V34.9956H236.428V25.5644C236.428 25.0205 236.477 24.4571 236.58 23.8889C236.678 23.3158 236.87 22.7962 237.145 22.3251C237.42 21.8541 237.813 21.4607 238.314 21.1499C238.815 20.839 239.483 20.6836 240.314 20.6836C241.144 20.6836 241.807 20.839 242.313 21.1499C242.814 21.4607 243.207 21.8541 243.482 22.3251C243.757 22.7962 243.949 23.3207 244.047 23.8889C244.145 24.462 244.199 25.0205 244.199 25.5644V34.9956H248.798V25.5644C248.798 23.8986 248.601 22.5 248.213 21.3733C247.825 20.2368 247.329 19.2996 246.724 18.5565Z" fill="#1F1F29"/>
<path d="M269.445 26.6085C269.081 25.9869 268.61 25.477 268.03 25.0787C267.45 24.6805 266.807 24.3746 266.09 24.1657C265.372 23.9569 264.665 23.8063 263.958 23.7189C263.255 23.6315 262.592 23.583 261.978 23.5684C261.364 23.5538 260.877 23.549 260.524 23.549C259.566 23.549 258.79 23.413 258.185 23.141C257.581 22.8691 257.281 22.4077 257.281 21.7618C257.281 21.0916 257.596 20.5622 258.225 20.1786C258.854 19.7949 259.684 19.6007 260.715 19.6007C262.096 19.6007 263.059 19.8289 263.599 20.2903C264.139 20.7516 264.41 21.3781 264.41 22.1746H269.008C269.032 20.6836 268.723 19.5035 268.084 18.6342C267.445 17.7649 266.674 17.1044 265.785 16.6576C264.891 16.2108 263.982 15.9243 263.054 15.798C262.125 15.6718 261.383 15.6135 260.828 15.6135C259.772 15.6135 258.765 15.7398 257.812 15.9874C256.854 16.2351 256.009 16.6091 255.267 17.1044C254.526 17.5998 253.931 18.2408 253.474 19.0227C253.022 19.8046 252.796 20.7176 252.796 21.7618C252.796 22.7088 253.022 23.5247 253.474 24.224C253.926 24.9185 254.516 25.4964 255.248 25.9578C255.975 26.4191 256.795 26.7591 257.699 26.9825C258.603 27.2059 259.507 27.3321 260.416 27.3564C261.595 27.3807 262.523 27.4584 263.186 27.5798C263.849 27.7061 264.341 27.8615 264.655 28.046C264.97 28.2306 265.166 28.4394 265.24 28.6628C265.313 28.8862 265.353 29.1096 265.353 29.333C265.353 29.5321 265.323 29.7409 265.259 29.9643C265.195 30.1877 265.014 30.4063 264.714 30.6151C264.414 30.8288 263.943 30.9939 263.299 31.1202C262.661 31.2465 261.747 31.295 260.568 31.2707C259.61 31.2465 258.858 31.1299 258.303 30.9162C257.748 30.7074 257.336 30.45 257.06 30.1537C256.785 29.8575 256.608 29.5515 256.535 29.2407C256.461 28.9299 256.422 28.6628 256.422 28.4394H251.824C251.824 29.6098 252.025 30.5957 252.428 31.4019C252.831 32.208 253.337 32.8685 253.956 33.3784C254.57 33.8884 255.248 34.2817 255.99 34.5537C256.731 34.8257 257.434 35.0248 258.102 35.1511C258.765 35.2773 259.35 35.3453 259.856 35.355C260.357 35.3696 260.686 35.3744 260.838 35.3744C261.668 35.3744 262.616 35.3113 263.682 35.1899C264.748 35.0636 265.751 34.782 266.679 34.3303C267.608 33.8835 268.394 33.2327 269.037 32.3732C269.676 31.5136 270 30.3674 270 28.9251C269.99 27.9975 269.808 27.2302 269.445 26.6085Z" fill="#1F1F29"/>
<path d="M150.597 9.6449C149.315 9.6449 148.485 10.2034 148.106 11.3204L138.178 34.9908H143.798L151.766 14.749L157.327 29.8089L159.572 34.9908H165.113L154.817 9.64005H150.597V9.6449Z" fill="#1F1F29"/>
<path d="M151.648 34.9908C153.425 34.9908 154.866 33.5666 154.866 31.8098C154.866 30.053 153.425 28.6288 151.648 28.6288C149.871 28.6288 148.431 30.053 148.431 31.8098C148.431 33.5666 149.871 34.9908 151.648 34.9908Z" fill="#1F1F29"/>
<path d="M181.305 18.7411V25.4867C181.305 25.511 181.305 25.5353 181.305 25.5596C181.305 26.1083 181.256 26.7008 181.153 27.3467C181.055 27.9926 180.844 28.5948 180.529 29.1533C180.215 29.7118 179.777 30.1781 179.208 30.552C178.643 30.9259 177.896 31.1105 176.963 31.1105C176.034 31.1105 175.283 30.9259 174.718 30.552C174.153 30.1781 173.72 29.7118 173.416 29.1533C173.116 28.5948 172.915 27.9926 172.812 27.3467C172.708 26.7008 172.659 26.1035 172.659 25.5596C172.659 25.0156 172.708 24.4183 172.812 23.7724C172.91 23.1265 173.111 22.5243 173.416 21.9658C173.716 21.4073 174.153 20.9411 174.718 20.5671C175.283 20.1932 176.029 20.0086 176.963 20.0086C177.891 20.0086 178.643 20.1932 179.208 20.5671C179.296 20.6254 179.38 20.6934 179.458 20.7565V16.6431C179.163 16.4585 178.874 16.2983 178.584 16.172C177.857 15.8758 177.1 15.6864 176.324 15.6135C174.767 15.6621 173.381 16.036 172.178 16.7305C171.652 17.0267 171.141 17.4153 170.65 17.8863C170.159 18.3574 169.722 18.9499 169.329 19.6589C168.941 20.368 168.626 21.2082 168.385 22.1746C168.145 23.1459 168.027 24.2726 168.027 25.5644C168.027 26.8562 168.155 27.9878 168.405 28.9542C168.656 29.9255 168.99 30.756 169.402 31.4504C169.815 32.1449 170.296 32.7228 170.837 33.1842C171.377 33.6456 171.922 34.0244 172.478 34.3206C173.784 34.9908 175.283 35.3405 176.963 35.3648C178.599 35.3405 180.067 34.9908 181.374 34.3206C181.929 34.0244 182.47 33.6456 182.995 33.1842C183.521 32.7228 183.992 32.1401 184.41 31.431C184.828 30.722 185.157 29.8818 185.407 28.9154C185.658 27.9441 185.785 26.8174 185.785 25.5256V9.83432H181.3V18.7411H181.305Z" fill="#1F1F29"/>
<path d="M132.583 18.2748C131.866 17.4152 130.957 16.7596 129.852 16.2983C128.746 15.8369 127.4 15.6086 125.819 15.6086C124.134 15.6572 122.64 16.0312 121.334 16.7256C120.778 17.0219 120.233 17.4104 119.693 17.8815C119.152 18.3525 118.676 18.945 118.258 19.6541C117.846 20.3631 117.512 21.2033 117.261 22.1697C117.011 23.141 116.883 24.2677 116.883 25.5595C116.883 26.8514 117.001 27.9829 117.241 28.9494C117.482 29.9206 117.792 30.7511 118.185 31.4456C118.573 32.14 119.015 32.718 119.506 33.1793C119.997 33.6407 120.503 34.0195 121.034 34.3157C122.242 34.9859 123.623 35.3356 125.18 35.3599C125.961 35.3113 126.713 35.1462 127.445 34.8742C127.734 34.7625 128.024 34.612 128.319 34.4323V30.3626C128.236 30.4257 128.157 30.4937 128.069 30.552C127.504 30.9259 126.757 31.1105 125.824 31.1105C124.895 31.1105 124.143 30.9259 123.579 30.552C123.014 30.178 122.581 29.7118 122.277 29.1533C121.977 28.5948 121.776 27.9926 121.672 27.3467C121.569 26.7008 121.52 26.1035 121.52 25.5595C121.52 25.0156 121.569 24.4183 121.672 23.7724C121.771 23.1265 121.972 22.5242 122.277 21.9658C122.576 21.4073 123.014 20.941 123.579 20.5671C124.143 20.1931 124.89 20.0086 125.824 20.0086C126.806 20.0086 127.582 20.1689 128.162 20.4942C128.742 20.8196 129.174 21.247 129.464 21.7812C129.754 22.3154 129.94 22.9128 130.029 23.5684C130.117 24.2192 130.161 24.8796 130.161 25.545V32.3877V34.9956H134.646V25.5984C134.646 24.0346 134.484 22.6359 134.155 21.4073C133.821 20.1786 133.295 19.1344 132.583 18.2748Z" fill="#1F1F29"/>
<path d="M202.65 18.2943L202.645 18.2894V25.3993C202.645 25.4527 202.65 25.511 202.65 25.5644C202.65 26.1132 202.601 26.7057 202.497 27.3516C202.394 27.9975 202.188 28.5997 201.874 29.1582C201.559 29.7167 201.122 30.1829 200.552 30.5569C199.987 30.9308 199.241 31.1153 198.307 31.1153C197.379 31.1153 196.627 30.9308 196.062 30.5569C195.497 30.1829 195.065 29.7167 194.76 29.1582C194.461 28.5997 194.259 27.9975 194.156 27.3516C194.053 26.7057 194.004 26.1083 194.004 25.5644C194.004 25.0205 194.053 24.4231 194.156 23.7772C194.254 23.1313 194.456 22.5291 194.76 21.9706C195.06 21.4121 195.497 20.9459 196.062 20.572C196.627 20.198 197.374 20.0135 198.307 20.0135C199.236 20.0135 199.987 20.198 200.552 20.572C200.641 20.6302 200.719 20.6934 200.803 20.7565V16.6431C200.508 16.4585 200.218 16.2983 199.933 16.172C199.206 15.8758 198.45 15.6864 197.669 15.6135C196.111 15.6621 194.726 16.036 193.522 16.7305C192.997 17.0267 192.486 17.4153 191.995 17.8863C191.503 18.3574 191.066 18.9499 190.673 19.6589C190.285 20.368 189.971 21.2082 189.73 22.1746C189.489 23.1459 189.371 24.2726 189.371 25.5644C189.371 26.8562 189.499 27.9878 189.75 28.9542C190 29.9255 190.334 30.756 190.747 31.4504C191.159 32.1449 191.641 32.7228 192.181 33.1842C192.722 33.6456 193.267 34.0244 193.822 34.3206C195.129 34.9908 196.627 35.3405 198.307 35.3648C199.943 35.3405 201.412 34.9908 202.719 34.3206C203.274 34.0244 203.814 33.6456 204.34 33.1842C204.865 32.7228 205.337 32.1401 205.754 31.431C206.167 30.722 206.501 29.8818 206.752 28.9154C207.002 27.9441 207.13 26.8174 207.13 25.5256V9.83432H202.645V18.2943H202.65Z" fill="#1F1F29"/>
<defs>
<linearGradient id="paint0_linear_48_175" x1="2.11785" y1="13.5335" x2="33.3672" y2="13.5335" gradientUnits="userSpaceOnUse">
<stop offset="0.0148" stop-color="#3FAF3E"/>
<stop offset="0.5123" stop-color="#AACD3D"/>
<stop offset="1" stop-color="#2C7035"/>
</linearGradient>
<linearGradient id="paint1_linear_48_175" x1="1.07383" y1="8.76907" x2="33.5031" y2="8.76907" gradientUnits="userSpaceOnUse">
<stop stop-color="#2C7035"/>
<stop offset="0.0914" stop-color="#3A7A36"/>
<stop offset="0.5195" stop-color="#76A73A"/>
<stop offset="0.8344" stop-color="#9CC23C"/>
<stop offset="1" stop-color="#AACD3D"/>
</linearGradient>
<linearGradient id="paint2_linear_48_175" x1="13.5409" y1="42.8699" x2="13.5409" y2="11.6374" gradientUnits="userSpaceOnUse">
<stop stop-color="#2B3990"/>
<stop offset="0.4877" stop-color="#00AEEF"/>
<stop offset="0.9754" stop-color="#284297"/>
</linearGradient>
<linearGradient id="paint3_linear_48_175" x1="8.77386" y1="43.9134" x2="8.77386" y2="11.5016" gradientUnits="userSpaceOnUse">
<stop stop-color="#2B3990"/>
<stop offset="1" stop-color="#00AEEF"/>
</linearGradient>
<linearGradient id="paint4_linear_48_175" x1="42.9427" y1="31.4774" x2="11.6933" y2="31.4774" gradientUnits="userSpaceOnUse">
<stop stop-color="#662D91"/>
<stop offset="0.4877" stop-color="#E3278F"/>
<stop offset="1" stop-color="#6E2D91"/>
</linearGradient>
<linearGradient id="paint5_linear_48_175" x1="43.9868" y1="36.2418" x2="11.5575" y2="36.2418" gradientUnits="userSpaceOnUse">
<stop stop-color="#662D91"/>
<stop offset="1" stop-color="#E3278F"/>
</linearGradient>
<linearGradient id="paint6_linear_48_175" x1="31.4618" y1="2.13922" x2="31.4618" y2="33.3717" gradientUnits="userSpaceOnUse">
<stop offset="0.0296" stop-color="#E35B2B"/>
<stop offset="0.0565" stop-color="#E66528"/>
<stop offset="0.1693" stop-color="#F08C1E"/>
<stop offset="0.2735" stop-color="#F7A717"/>
<stop offset="0.3648" stop-color="#FBB813"/>
<stop offset="0.4335" stop-color="#FDBE11"/>
<stop offset="0.5414" stop-color="#FAB114"/>
<stop offset="0.7419" stop-color="#F18E1D"/>
<stop offset="1" stop-color="#E3592B"/>
</linearGradient>
<linearGradient id="paint7_linear_48_175" x1="36.2292" y1="1.09572" x2="36.2292" y2="33.5075" gradientUnits="userSpaceOnUse">
<stop stop-color="#E3592B"/>
<stop offset="1" stop-color="#FDBE11"/>
</linearGradient>
</defs>
</svg>
