<svg width="651" height="246" viewBox="0 0 651 246" fill="none" xmlns="http://www.w3.org/2000/svg">
<rect x="49" y="37" width="553" height="166" rx="15" fill="#FFEDF0"/>
<g filter="url(#filter0_d_54_29)">
<rect x="40" y="30" width="571" height="166" rx="20" fill="white"/>
</g>
<path d="M249.543 142L250.86 138.293H256.152L257.469 142H259.131L254.324 128.909H252.688L247.881 142H249.543ZM251.358 136.886L253.455 130.98H253.557L255.654 136.886H251.358ZM264.954 142.205C267.128 142.205 268.559 140.875 268.815 139.136H267.307C267.025 140.21 266.13 140.849 264.954 140.849C263.165 140.849 262.014 139.366 262.014 137.091C262.014 134.866 263.19 133.409 264.954 133.409C266.284 133.409 267.076 134.227 267.307 135.122H268.815C268.559 133.281 267 132.054 264.929 132.054C262.27 132.054 260.505 134.151 260.505 137.142C260.505 140.082 262.193 142.205 264.954 142.205ZM275.29 132.182H273.194V129.83H271.685V132.182H270.202V133.46H271.685V139.597C271.685 141.31 273.066 142.128 274.344 142.128C274.907 142.128 275.265 142.026 275.469 141.949L275.162 140.594C275.035 140.619 274.83 140.67 274.498 140.67C273.833 140.67 273.194 140.466 273.194 139.188V133.46H275.29V132.182ZM277.559 142H279.068V132.182H277.559V142ZM278.326 130.545C278.915 130.545 279.4 130.085 279.4 129.523C279.4 128.96 278.915 128.5 278.326 128.5C277.738 128.5 277.253 128.96 277.253 129.523C277.253 130.085 277.738 130.545 278.326 130.545ZM289.859 132.182H288.223L285.513 140.006H285.41L282.7 132.182H281.064L284.695 142H286.229L289.859 132.182ZM295.615 142.205C297.61 142.205 299.067 141.207 299.527 139.724L298.07 139.315C297.686 140.338 296.798 140.849 295.615 140.849C293.845 140.849 292.624 139.705 292.554 137.602H299.681V136.963C299.681 133.307 297.507 132.054 295.462 132.054C292.803 132.054 291.039 134.151 291.039 137.168C291.039 140.185 292.777 142.205 295.615 142.205ZM292.554 136.298C292.656 134.771 293.736 133.409 295.462 133.409C297.098 133.409 298.147 134.636 298.147 136.298H292.554ZM308.828 128.909H307.242V142H308.828V128.909ZM313.31 136.094C313.31 134.381 314.371 133.409 315.816 133.409C317.216 133.409 318.066 134.323 318.066 135.864V142H319.574V135.761C319.574 133.256 318.238 132.054 316.25 132.054C314.767 132.054 313.847 132.719 313.387 133.716H313.259V132.182H311.802V142H313.31V136.094ZM329.285 134.381C328.812 132.987 327.751 132.054 325.808 132.054C323.737 132.054 322.203 133.23 322.203 134.892C322.203 136.247 323.008 137.155 324.811 137.577L326.447 137.96C327.438 138.19 327.905 138.663 327.905 139.341C327.905 140.185 327.01 140.875 325.604 140.875C324.37 140.875 323.597 140.344 323.328 139.29L321.896 139.648C322.248 141.316 323.622 142.205 325.629 142.205C327.911 142.205 329.464 140.958 329.464 139.264C329.464 137.896 328.608 137.033 326.856 136.605L325.399 136.247C324.236 135.96 323.712 135.57 323.712 134.815C323.712 133.972 324.606 133.358 325.808 133.358C327.125 133.358 327.668 134.087 327.93 134.764L329.285 134.381ZM336.005 132.182H333.908V129.83H332.4V132.182H330.917V133.46H332.4V139.597C332.4 141.31 333.781 142.128 335.059 142.128C335.622 142.128 335.979 142.026 336.184 141.949L335.877 140.594C335.749 140.619 335.545 140.67 335.212 140.67C334.548 140.67 333.908 140.466 333.908 139.188V133.46H336.005V132.182ZM341.163 142.23C342.877 142.23 343.771 141.31 344.078 140.67H344.155V142H345.663V135.531C345.663 132.412 343.286 132.054 342.033 132.054C340.55 132.054 338.862 132.565 338.095 134.355L339.527 134.866C339.859 134.151 340.646 133.384 342.084 133.384C343.471 133.384 344.155 134.119 344.155 135.378V135.429C344.155 136.158 343.413 136.094 341.624 136.324C339.802 136.56 337.814 136.963 337.814 139.213C337.814 141.131 339.297 142.23 341.163 142.23ZM341.394 140.875C340.192 140.875 339.323 140.338 339.323 139.29C339.323 138.139 340.371 137.781 341.547 137.628C342.186 137.551 343.899 137.372 344.155 137.065V138.446C344.155 139.673 343.183 140.875 341.394 140.875ZM349.925 128.909H348.417V142H349.925V128.909ZM354.197 128.909H352.688V142H354.197V128.909Z" fill="#8D93A3"/>
<path d="M264.999 87.1818H261.238L255.816 90.6655V94.2876L260.919 91.0277H261.046V109H264.999V87.1818ZM278.603 109.415C283.866 109.426 287.009 105.271 287.009 98.1122C287.009 90.9957 283.845 86.8835 278.603 86.8835C273.362 86.8835 270.208 90.9851 270.198 98.1122C270.198 105.261 273.34 109.415 278.603 109.415ZM278.603 106.081C275.887 106.081 274.182 103.354 274.193 98.1122C274.203 92.9134 275.897 90.1754 278.603 90.1754C281.32 90.1754 283.014 92.9134 283.024 98.1122C283.024 103.354 281.33 106.081 278.603 106.081ZM298.613 109.415C303.876 109.426 307.018 105.271 307.018 98.1122C307.018 90.9957 303.854 86.8835 298.613 86.8835C293.371 86.8835 290.218 90.9851 290.207 98.1122C290.207 105.261 293.35 109.415 298.613 109.415ZM298.613 106.081C295.896 106.081 294.192 103.354 294.202 98.1122C294.213 92.9134 295.907 90.1754 298.613 90.1754C301.33 90.1754 303.023 92.9134 303.034 98.1122C303.034 103.354 301.34 106.081 298.613 106.081ZM318.623 109.415C323.885 109.426 327.028 105.271 327.028 98.1122C327.028 90.9957 323.864 86.8835 318.623 86.8835C313.381 86.8835 310.228 90.9851 310.217 98.1122C310.217 105.261 313.36 109.415 318.623 109.415ZM318.623 106.081C315.906 106.081 314.202 103.354 314.212 98.1122C314.223 92.9134 315.917 90.1754 318.623 90.1754C321.339 90.1754 323.033 92.9134 323.044 98.1122C323.044 103.354 321.35 106.081 318.623 106.081ZM337.045 105.506H340.39V99.8061H346.09V96.4609H340.39V90.7614H337.045V96.4609H331.346V99.8061H337.045V105.506Z" fill="#5956E9"/>
<path d="M97.6377 142C101.626 142 103.876 139.52 103.876 135.429C103.876 131.364 101.626 128.909 97.8167 128.909H93.5979V142H97.6377ZM95.1832 140.594V130.315H97.7144C100.783 130.315 102.342 132.259 102.342 135.429C102.342 138.625 100.783 140.594 97.5354 140.594H95.1832ZM110.32 142.205C112.979 142.205 114.768 140.185 114.768 137.142C114.768 134.074 112.979 132.054 110.32 132.054C107.66 132.054 105.871 134.074 105.871 137.142C105.871 140.185 107.66 142.205 110.32 142.205ZM110.32 140.849C108.3 140.849 107.379 139.111 107.379 137.142C107.379 135.173 108.3 133.409 110.32 133.409C112.339 133.409 113.26 135.173 113.26 137.142C113.26 139.111 112.339 140.849 110.32 140.849ZM118.962 142H120.445L122.592 134.457H122.746L124.893 142H126.376L129.368 132.182H127.783L125.66 139.673H125.558L123.487 132.182H121.876L119.78 139.699H119.677L117.555 132.182H115.97L118.962 142ZM132.871 136.094C132.871 134.381 133.932 133.409 135.376 133.409C136.776 133.409 137.626 134.323 137.626 135.864V142H139.135V135.761C139.135 133.256 137.799 132.054 135.811 132.054C134.328 132.054 133.408 132.719 132.947 133.716H132.82V132.182H131.362V142H132.871V136.094ZM144.781 142.23C146.494 142.23 147.389 141.31 147.695 140.67H147.772V142H149.281V135.531C149.281 132.412 146.903 132.054 145.65 132.054C144.167 132.054 142.479 132.565 141.712 134.355L143.144 134.866C143.477 134.151 144.263 133.384 145.701 133.384C147.088 133.384 147.772 134.119 147.772 135.378V135.429C147.772 136.158 147.031 136.094 145.241 136.324C143.419 136.56 141.431 136.963 141.431 139.213C141.431 141.131 142.914 142.23 144.781 142.23ZM145.011 140.875C143.809 140.875 142.94 140.338 142.94 139.29C142.94 138.139 143.988 137.781 145.164 137.628C145.803 137.551 147.516 137.372 147.772 137.065V138.446C147.772 139.673 146.801 140.875 145.011 140.875ZM153.543 128.909H152.034V142H153.543V128.909ZM160.294 142.205C162.953 142.205 164.743 140.185 164.743 137.142C164.743 134.074 162.953 132.054 160.294 132.054C157.635 132.054 155.845 134.074 155.845 137.142C155.845 140.185 157.635 142.205 160.294 142.205ZM160.294 140.849C158.274 140.849 157.354 139.111 157.354 137.142C157.354 135.173 158.274 133.409 160.294 133.409C162.314 133.409 163.234 135.173 163.234 137.142C163.234 139.111 162.314 140.849 160.294 140.849ZM169.935 142.23C171.648 142.23 172.543 141.31 172.85 140.67H172.926V142H174.435V135.531C174.435 132.412 172.057 132.054 170.804 132.054C169.321 132.054 167.634 132.565 166.867 134.355L168.299 134.866C168.631 134.151 169.417 133.384 170.855 133.384C172.242 133.384 172.926 134.119 172.926 135.378V135.429C172.926 136.158 172.185 136.094 170.395 136.324C168.573 136.56 166.585 136.963 166.585 139.213C166.585 141.131 168.068 142.23 169.935 142.23ZM170.165 140.875C168.963 140.875 168.094 140.338 168.094 139.29C168.094 138.139 169.142 137.781 170.318 137.628C170.958 137.551 172.671 137.372 172.926 137.065V138.446C172.926 139.673 171.955 140.875 170.165 140.875ZM180.896 142.205C182.788 142.205 183.427 141.028 183.759 140.491H183.938V142H185.396V128.909H183.887V133.741H183.759C183.427 133.23 182.839 132.054 180.921 132.054C178.441 132.054 176.728 134.023 176.728 137.116C176.728 140.236 178.441 142.205 180.896 142.205ZM181.1 140.849C179.208 140.849 178.237 139.188 178.237 137.091C178.237 135.02 179.183 133.409 181.1 133.409C182.941 133.409 183.913 134.892 183.913 137.091C183.913 139.315 182.916 140.849 181.1 140.849Z" fill="#8D93A3"/>
<path d="M100.226 109.298C104.892 109.298 108.291 106.624 108.28 102.938C108.291 100.211 106.586 98.2507 103.529 97.8139V97.6435C105.894 97.1321 107.481 95.3743 107.471 92.924C107.481 89.6001 104.647 86.8835 100.29 86.8835C96.0501 86.8835 92.7688 89.4084 92.6836 93.0625H96.4869C96.5508 91.2301 98.2553 90.0902 100.269 90.0902C102.304 90.0902 103.657 91.326 103.646 93.1584C103.657 95.0653 102.08 96.3331 99.8214 96.3331H97.8931V99.38H99.8214C102.581 99.38 104.221 100.765 104.211 102.736C104.221 104.664 102.549 105.985 100.216 105.985C98.021 105.985 96.3271 104.845 96.2312 103.066H92.2255C92.332 106.752 95.6239 109.298 100.226 109.298ZM119.512 86.8835C114.781 86.8516 111.639 90.1009 111.639 94.3622C111.649 98.4744 114.579 101.447 118.404 101.447C120.758 101.447 122.803 100.307 123.858 98.4318H124.007C123.997 103.098 122.303 105.879 119.288 105.879C117.402 105.879 116.134 104.792 115.74 103.055H111.852C112.299 106.667 115.154 109.298 119.288 109.298C124.519 109.298 127.853 104.93 127.843 97.4197C127.832 89.4723 123.698 86.9048 119.512 86.8835ZM119.522 90.0795C121.855 90.0795 123.57 92.0185 123.57 94.245C123.581 96.5036 121.781 98.4425 119.48 98.4425C117.157 98.4425 115.485 96.6101 115.474 94.277C115.474 91.9332 117.21 90.0795 119.522 90.0795ZM139.22 109.298C143.887 109.298 147.285 106.624 147.274 102.938C147.285 100.211 145.58 98.2507 142.523 97.8139V97.6435C144.888 97.1321 146.475 95.3743 146.465 92.924C146.475 89.6001 143.642 86.8835 139.284 86.8835C135.044 86.8835 131.763 89.4084 131.678 93.0625H135.481C135.545 91.2301 137.249 90.0902 139.263 90.0902C141.298 90.0902 142.651 91.326 142.64 93.1584C142.651 95.0653 141.074 96.3331 138.816 96.3331H136.887V99.38H138.816C141.575 99.38 143.215 100.765 143.205 102.736C143.215 104.664 141.543 105.985 139.21 105.985C137.015 105.985 135.321 104.845 135.225 103.066H131.22C131.326 106.752 134.618 109.298 139.22 109.298ZM158.687 109.298C163.406 109.298 166.783 106.699 166.794 103.151C166.783 100.424 164.77 98.1442 162.234 97.718V97.5689C164.44 97.0788 165.974 95.0973 165.984 92.7322C165.974 89.3764 162.884 86.8835 158.687 86.8835C154.457 86.8835 151.368 89.3658 151.379 92.7322C151.368 95.0973 152.881 97.0788 155.129 97.5689V97.718C152.55 98.1442 150.558 100.424 150.569 103.151C150.558 106.699 153.925 109.298 158.687 109.298ZM158.687 106.251C156.215 106.251 154.617 104.888 154.638 102.874C154.617 100.786 156.332 99.3054 158.687 99.3054C161.009 99.3054 162.714 100.797 162.735 102.874C162.714 104.888 161.126 106.251 158.687 106.251ZM158.687 96.3118C156.663 96.3118 155.214 95.0014 155.235 93.1051C155.214 91.2301 156.62 89.973 158.687 89.973C160.722 89.973 162.117 91.2301 162.138 93.1051C162.117 95.0121 160.679 96.3118 158.687 96.3118ZM176.774 105.506H180.119V99.8061H185.818V96.4609H180.119V90.7614H176.774V96.4609H171.074V99.8061H176.774V105.506Z" fill="#5956E9"/>
<path d="M429.13 133C428.644 130.315 426.497 128.73 423.863 128.73C420.514 128.73 418.085 131.312 418.085 135.455C418.085 139.597 420.514 142.179 423.863 142.179C426.497 142.179 428.644 140.594 429.13 137.909H427.545C427.161 139.724 425.602 140.696 423.863 140.696C421.485 140.696 419.619 138.855 419.619 135.455C419.619 132.054 421.485 130.213 423.863 130.213C425.602 130.213 427.161 131.185 427.545 133H429.13ZM437.675 137.986C437.675 139.827 436.268 140.67 435.143 140.67C433.891 140.67 432.996 139.75 432.996 138.318V132.182H431.487V138.42C431.487 140.926 432.817 142.128 434.658 142.128C436.141 142.128 437.112 141.335 437.572 140.338H437.675V142H439.183V132.182H437.675V137.986ZM448.901 134.381C448.428 132.987 447.367 132.054 445.423 132.054C443.352 132.054 441.818 133.23 441.818 134.892C441.818 136.247 442.624 137.155 444.426 137.577L446.063 137.96C447.053 138.19 447.52 138.663 447.52 139.341C447.52 140.185 446.625 140.875 445.219 140.875C443.985 140.875 443.212 140.344 442.943 139.29L441.511 139.648C441.863 141.316 443.237 142.205 445.244 142.205C447.526 142.205 449.08 140.958 449.08 139.264C449.08 137.896 448.223 137.033 446.472 136.605L445.014 136.247C443.851 135.96 443.327 135.57 443.327 134.815C443.327 133.972 444.222 133.358 445.423 133.358C446.74 133.358 447.283 134.087 447.546 134.764L448.901 134.381ZM455.62 132.182H453.524V129.83H452.015V132.182H450.532V133.46H452.015V139.597C452.015 141.31 453.396 142.128 454.674 142.128C455.237 142.128 455.595 142.026 455.799 141.949L455.492 140.594C455.365 140.619 455.16 140.67 454.828 140.67C454.163 140.67 453.524 140.466 453.524 139.188V133.46H455.62V132.182ZM461.773 142.205C464.432 142.205 466.222 140.185 466.222 137.142C466.222 134.074 464.432 132.054 461.773 132.054C459.114 132.054 457.324 134.074 457.324 137.142C457.324 140.185 459.114 142.205 461.773 142.205ZM461.773 140.849C459.753 140.849 458.832 139.111 458.832 137.142C458.832 135.173 459.753 133.409 461.773 133.409C463.793 133.409 464.713 135.173 464.713 137.142C464.713 139.111 463.793 140.849 461.773 140.849ZM468.524 142H470.033V135.864C470.033 134.425 471.081 133.409 472.257 133.409C473.401 133.409 474.2 134.157 474.2 135.276V142H475.734V135.608C475.734 134.342 476.527 133.409 477.908 133.409C478.982 133.409 479.902 133.978 479.902 135.429V142H481.411V135.429C481.411 133.121 480.171 132.054 478.419 132.054C477.013 132.054 475.984 132.7 475.479 133.716H475.377C474.891 132.668 474.034 132.054 472.743 132.054C471.465 132.054 470.519 132.668 470.109 133.716H469.982V132.182H468.524V142ZM488.285 142.205C490.28 142.205 491.737 141.207 492.197 139.724L490.74 139.315C490.356 140.338 489.468 140.849 488.285 140.849C486.515 140.849 485.294 139.705 485.223 137.602H492.351V136.963C492.351 133.307 490.177 132.054 488.132 132.054C485.473 132.054 483.709 134.151 483.709 137.168C483.709 140.185 485.447 142.205 488.285 142.205ZM485.223 136.298C485.326 134.771 486.406 133.409 488.132 133.409C489.768 133.409 490.816 134.636 490.816 136.298H485.223ZM494.645 142H496.154V135.787C496.154 134.457 497.202 133.486 498.634 133.486C499.037 133.486 499.452 133.562 499.554 133.588V132.054C499.382 132.041 498.986 132.028 498.762 132.028C497.586 132.028 496.563 132.693 496.205 133.665H496.103V132.182H494.645V142ZM506.61 142H508.195V136.886H511.059C511.174 136.886 511.282 136.886 511.391 136.88L514.152 142H515.993L513.034 136.592C514.702 136.023 515.482 134.662 515.482 132.923C515.482 130.609 514.101 128.909 511.033 128.909H506.61V142ZM508.195 135.455V130.315H510.982C513.104 130.315 513.922 131.351 513.922 132.923C513.922 134.496 513.104 135.455 511.007 135.455H508.195ZM520.808 142.23C522.521 142.23 523.416 141.31 523.723 140.67H523.799V142H525.308V135.531C525.308 132.412 522.93 132.054 521.677 132.054C520.194 132.054 518.507 132.565 517.74 134.355L519.172 134.866C519.504 134.151 520.29 133.384 521.728 133.384C523.116 133.384 523.799 134.119 523.799 135.378V135.429C523.799 136.158 523.058 136.094 521.268 136.324C519.446 136.56 517.459 136.963 517.459 139.213C517.459 141.131 518.941 142.23 520.808 142.23ZM521.038 140.875C519.836 140.875 518.967 140.338 518.967 139.29C518.967 138.139 520.015 137.781 521.191 137.628C521.831 137.551 523.544 137.372 523.799 137.065V138.446C523.799 139.673 522.828 140.875 521.038 140.875ZM532.331 132.182H530.235V129.83H528.726V132.182H527.243V133.46H528.726V139.597C528.726 141.31 530.107 142.128 531.385 142.128C531.948 142.128 532.306 142.026 532.51 141.949L532.203 140.594C532.076 140.619 531.871 140.67 531.539 140.67C530.874 140.67 530.235 140.466 530.235 139.188V133.46H532.331V132.182ZM534.6 142H536.109V132.182H534.6V142ZM535.367 130.545C535.956 130.545 536.441 130.085 536.441 129.523C536.441 128.96 535.956 128.5 535.367 128.5C534.779 128.5 534.294 128.96 534.294 129.523C534.294 130.085 534.779 130.545 535.367 130.545ZM540.38 136.094C540.38 134.381 541.441 133.409 542.886 133.409C544.286 133.409 545.136 134.323 545.136 135.864V142H546.645V135.761C546.645 133.256 545.309 132.054 543.321 132.054C541.838 132.054 540.917 132.719 540.457 133.716H540.329V132.182H538.872V142H540.38V136.094ZM553.364 145.886C555.717 145.886 557.609 144.812 557.609 142.281V132.182H556.151V133.741H555.998C555.665 133.23 555.052 132.054 553.134 132.054C550.654 132.054 548.941 134.023 548.941 137.04C548.941 140.108 550.731 141.847 553.109 141.847C555.026 141.847 555.64 140.722 555.972 140.185H556.1V142.179C556.1 143.815 554.949 144.557 553.364 144.557C551.581 144.557 550.954 143.617 550.552 143.074L549.35 143.918C549.964 144.947 551.172 145.886 553.364 145.886ZM553.313 140.491C551.421 140.491 550.449 139.06 550.449 137.014C550.449 135.02 551.396 133.409 553.313 133.409C555.154 133.409 556.126 134.892 556.126 137.014C556.126 139.188 555.128 140.491 553.313 140.491Z" fill="#8D93A3"/>
<path d="M428.5 86L432.361 93.9065L441 95.1682L434.75 101.322L436.222 110L428.5 105.893L420.778 110L422.25 101.322L416 95.1682L424.639 93.9065L428.5 86Z" fill="#FFAA04"/>
<path d="M458.5 86L462.361 93.9065L471 95.1682L464.75 101.322L466.222 110L458.5 105.893L450.778 110L452.25 101.322L446 95.1682L454.639 93.9065L458.5 86Z" fill="#FFAA04"/>
<path d="M488.5 86L492.361 93.9065L501 95.1682L494.75 101.322L496.222 110L488.5 105.893L480.778 110L482.25 101.322L476 95.1682L484.639 93.9065L488.5 86Z" fill="#FFAA04"/>
<path d="M518.5 86L522.361 93.9065L531 95.1682L524.75 101.322L526.222 110L518.5 105.893L510.778 110L512.25 101.322L506 95.1682L514.639 93.9065L518.5 86Z" fill="#FFAA04"/>
<path d="M548.5 86L552.361 93.9065L561 95.1682L554.75 101.322L556.222 110L548.5 105.893L540.778 110L542.25 101.322L536 95.1682L544.639 93.9065L548.5 86Z" fill="#FFAA04"/>
<defs>
<filter id="filter0_d_54_29" x="0" y="0" width="651" height="246" filterUnits="userSpaceOnUse" color-interpolation-filters="sRGB">
<feFlood flood-opacity="0" result="BackgroundImageFix"/>
<feColorMatrix in="SourceAlpha" type="matrix" values="0 0 0 0 0 0 0 0 0 0 0 0 0 0 0 0 0 0 127 0" result="hardAlpha"/>
<feOffset dy="10"/>
<feGaussianBlur stdDeviation="20"/>
<feColorMatrix type="matrix" values="0 0 0 0 0.785556 0 0 0 0 0.811367 0 0 0 0 0.841667 0 0 0 0.3 0"/>
<feBlend mode="normal" in2="BackgroundImageFix" result="effect1_dropShadow_54_29"/>
<feBlend mode="normal" in="SourceGraphic" in2="effect1_dropShadow_54_29" result="shape"/>
</filter>
</defs>
</svg>
